# xmcd
#
# Track frame offsets: 
#        150
#        5115
#        27045
#        50040
#        67397
#        89970
#        119350
#        138573
#        159669
#        187103
#        190813
#        229226
#        259414
#        298649
#
# Disc length: 4555 seconds
#
# Revision: 0
# Processed by: cddbd v1.5.2PL0 Copyright (c) Steve Scherf et al.
# Submitted via: ExactAudioCopyFreeDBPlugin 1.0
#
DISCID=e311c90e
DTITLE=Cherrelle - High Priority (2013 Remastered)
DYEAR=1985
DGENRE=R&B
TTITLE0=The Opening
TTITLE1=You Look Good To Me
TTITLE2=Artificial Heart
TTITLE3=New Love
TTITLE4=Oh No, It's U Again
TTITLE5=Saturday Love (feat. Alexander O'Neal)
TTITLE6=Will You Satisfy
TTITLE7=Where Do I Run To?
TTITLE8=High Priority
TTITLE9=New Love [Reprise]
TTITLE10=Artificial Heart [Dance Remix]
TTITLE11=Oh No It’s U Again [Extended Version]
TTITLE12=Saturday Love (feat. Alexander O'Neal) [Extended Version]
TTITLE13=You Look Good To Me [Extended Remix]
EXTD=
EXTT0=
EXTT1=
EXTT2=
EXTT3=
EXTT4=
EXTT5=
EXTT6=
EXTT7=
EXTT8=
EXTT9=
EXTT10=
EXTT11=
EXTT12=
EXTT13=
PLAYORDER=
